<svg width="64" height="64" fill="none" xmlns="http://www.w3.org/2000/svg"><g clip-path="url('#clip0_495_11506')"><path d="m.002 32.382-.001-.085c-.007-.64.03-1.287.076-1.926.05-.711.064-1.424.173-2.131.043-.286.052-.577.099-.863.086-.517.187-1.032.285-1.547.212-1.114.492-2.212.828-3.297a31.865 31.865 0 0 1 5.327-10.22 31.806 31.806 0 0 1 7.315-6.84 31.703 31.703 0 0 1 8.747-4.149c1.33-.397 2.676-.73 4.055-.914.611-.08 1.22-.172 1.83-.26.174-.015.347-.031.52-.048L29.3.098l.622-.049.096-.007h.304L31.2.003 32.785 0l.827.036.254-.004.147.009.57.043.096.006.519.046c.484.068.968.133 1.451.204.51.075 1.022.136 1.526.239.71.144 1.415.306 2.114.487 1.24.32 2.45.73 3.639 1.207a31.786 31.786 0 0 1 7.741 4.441 31.782 31.782 0 0 1 8.494 10.02 31.567 31.567 0 0 1 3.258 9.064c.063.325.097.656.151.983.045.266.112.528.149.795.154 1.098.26 2.201.274 3.312l.006 2.002c-.034.63-.065 1.26-.102 1.89-.008.125-.04.25-.052.375-.021.218-.025.438-.055.655-.04.3-.1.599-.146.899-.076.486-.132.976-.225 1.458a30.368 30.368 0 0 1-.982 3.76c-1.82 5.492-4.882 10.172-9.212 14.01-3.746 3.32-8.048 5.626-12.882 6.928-.903.243-1.825.42-2.742.61-.438.092-.884.147-1.328.207-.41.056-.822.097-1.233.145l-.517.048.003.004-.838.05-.902.058c-.444 0-.888.002-1.331.003l-.908-.056-.784-.042-.094-.005-.52-.046-.096-.01-.317-.037c-.202-.019-.404-.035-.605-.056-.31-.032-.623-.051-.93-.104a27.398 27.398 0 0 1-1.509-.3c-.927-.215-1.86-.408-2.77-.68a34.427 34.427 0 0 1-2.699-.95c-3.32-1.298-6.318-3.132-9.026-5.445a31.693 31.693 0 0 1-5.597-6.254 31.79 31.79 0 0 1-4.403-9.492 29.277 29.277 0 0 1-.75-3.409c-.238-1.56-.423-3.141-.447-4.721Zm32.976 23.505c.029.004.072.022.082.01.062-.07.117-.146.172-.222l8.755-12.111 5.846-8.09c.037-.05.063-.106.125-.214-.123.066-.19.098-.255.136l-2.545 1.476-8.898 5.16c-.974.565-1.947 1.132-2.923 1.694-.114.066-.248.099-.373.147-.051-.03-.102-.062-.153-.091-3.961-2.3-7.922-4.598-11.883-6.896-.84-.488-1.68-.977-2.523-1.464-.077-.044-.165-.07-.247-.106.003.067.023.094.043.121l7.942 10.994 6.835 9.456Zm.045-47.843-.057.039c-.045.072-.092.143-.137.216L21.026 27.536c-.972 1.585-1.942 3.171-2.913 4.757-.128.161.038.188.118.235 1.052.615 2.107 1.226 3.162 1.838l9.157 5.314c.752.436 1.502.875 2.256 1.309.073.042.144.136.25.062.095-.038.195-.065.282-.115.644-.368 1.285-.741 1.927-1.114l4.997-2.905 3.14-1.824c.783-.454 1.567-.904 2.348-1.358.656-.381 1.31-.764 1.964-1.151.076-.046.134-.121.2-.183.082-.13-.036-.206-.087-.29-1.066-1.747-2.135-3.49-3.205-5.235l-5.684-9.263c-1.912-3.117-3.823-6.234-5.736-9.35-.044-.071-.105-.131-.157-.196-.002-.014-.009-.021-.022-.023Z" fill="#5A7FF2"/><path d="M33.044 8.067c.053.065.114.125.158.195l5.736 9.351 5.684 9.263c1.07 1.744 2.139 3.488 3.205 5.235.052.084.169.16.088.29-.072-.044-.14-.097-.216-.131-.38-.174-.762-.344-1.143-.514-1.2-.535-2.399-1.069-3.598-1.605l-3.15-1.412c-1.215-.543-2.43-1.083-3.644-1.625-.973-.435-1.945-.87-2.919-1.304-.057-.026-.122-.032-.208-.054-.007.115-.015.198-.015.282v14.737c0 .092.023.184.034.276-.106.074-.177-.02-.25-.062-.754-.434-1.504-.872-2.256-1.309l-9.157-5.314c-1.055-.612-2.11-1.223-3.162-1.838-.08-.047-.246-.074-.118-.234.187.067.322-.068.469-.132.758-.332 1.51-.677 2.265-1.015 1.191-.532 2.384-1.061 3.575-1.594 1.215-.543 2.428-1.09 3.643-1.632 1.526-.682 3.055-1.36 4.579-2.046.419-.189.375-.12.375-.584l.001-16.817c0-.136.016-.272.024-.407Z" fill="#BECCFA"/><path d="M33.044 8.067c-.008.135-.023.271-.023.407-.002 5.605-.001 11.211-.002 16.817 0 .465.044.395-.375.584-1.524.686-3.052 1.363-4.578 2.046-1.215.543-2.428 1.09-3.643 1.632-1.191.533-2.384 1.062-3.576 1.594-.755.338-1.507.683-2.264 1.015-.147.064-.282.2-.47.131l2.914-4.756L32.83 8.299c.044-.073.091-.144.137-.216l.056-.039c.013.002.02.01.022.023Z" fill="#fff"/><path d="M33.057 41.05c-.012-.091-.035-.183-.035-.275V26.037c0-.083.009-.167.015-.281.086.021.151.028.208.053l2.92 1.304c1.214.543 2.429 1.083 3.643 1.626l3.15 1.412 3.598 1.605c.381.17.763.34 1.143.513.076.035.144.088.216.132-.067.061-.125.137-.201.182-.653.387-1.308.77-1.964 1.152-.781.454-1.565.904-2.347 1.357l-3.14 1.825-4.998 2.905c-.641.373-1.283.745-1.927 1.114-.087.05-.187.077-.281.114Z" fill="#7B99F5"/><path d="M32.965 43.874c.124-.049.258-.082.373-.148.976-.561 1.948-1.129 2.922-1.694l8.898-5.16c.849-.492 1.697-.985 2.546-1.476.064-.038.131-.07.255-.136-.062.108-.089.165-.125.215l-5.846 8.089-8.755 12.111c-.055.076-.11.152-.172.223-.01.011-.054-.007-.082-.01.014-.083.04-.166.04-.249.001-3.823.002-7.646-.001-11.469 0-.099-.034-.197-.053-.296Z" fill="#BECCFA"/><path d="M32.965 43.874c.018.099.052.197.052.296.003 3.823.003 7.646 0 11.47 0 .082-.025.165-.039.247l-6.835-9.456c-2.647-3.664-5.294-7.33-7.942-10.993a.195.195 0 0 1-.043-.122c.083.035.17.062.248.106.842.487 1.682.976 2.523 1.464L32.81 43.78l.154.092Z" fill="#FEFFFF"/><path d="M29.377.092 30 .045l-.622.047Z" fill="#BFB0F7"/><path d="m34.09.045.57.045-.57-.045Z" fill="#C5B5F8"/><path d="m34.964 63.833-.517.047.517-.047Z" fill="#96CBF9"/></g><defs><clipPath id="clip0_495_11506"><path fill="#fff" d="M0 0h64v63.989H0z"/></clipPath></defs></svg>