<svg width="64" height="64" fill="none" xmlns="http://www.w3.org/2000/svg"><circle cx="32" cy="32" r="32" fill="#000"/><path d="M18.533 40.23c.24-.24.572-.38.923-.38h31.84c.581 0 .872.702.46 1.113l-6.289 6.29c-.24.24-.572.38-.923.38h-31.84a.652.652 0 0 1-.46-1.113l6.289-6.29Z" fill="url('#paint0_linear_497_6808')"/><path d="M18.533 16.747c.251-.24.582-.38.923-.38h31.84c.581 0 .872.701.46 1.113l-6.289 6.29c-.24.24-.572.38-.923.38H12.705a.652.652 0 0 1-.461-1.113l6.29-6.29Z" fill="url('#paint1_linear_497_6808')"/><path d="M45.467 28.414a1.305 1.305 0 0 0-.923-.381h-31.84a.652.652 0 0 0-.46 1.113l6.289 6.29c.24.24.572.38.923.38h31.84a.652.652 0 0 0 .46-1.113l-6.289-6.29Z" fill="url('#paint2_linear_497_6808')"/><defs><linearGradient id="paint0_linear_497_6808" x1="48.254" y1="12.61" x2="26.218" y2="54.815" gradientUnits="userSpaceOnUse"><stop stop-color="#00FFA3"/><stop offset="1" stop-color="#DC1FFF"/></linearGradient><linearGradient id="paint1_linear_497_6808" x1="38.62" y1="7.579" x2="16.584" y2="49.785" gradientUnits="userSpaceOnUse"><stop stop-color="#00FFA3"/><stop offset="1" stop-color="#DC1FFF"/></linearGradient><linearGradient id="paint2_linear_497_6808" x1="43.406" y1="10.078" x2="21.371" y2="52.284" gradientUnits="userSpaceOnUse"><stop stop-color="#00FFA3"/><stop offset="1" stop-color="#DC1FFF"/></linearGradient></defs></svg>