<svg width="64" height="64" fill="none" xmlns="http://www.w3.org/2000/svg"><g clip-path="url('#clip0_495_11507')"><path d="M32 0c17.672 0 32 14.328 32 32S49.672 64 32 64 0 49.676 0 32C0 14.324 14.326 0 32 0Z" fill="#53AE94"/><path d="M35.95 27.736v-4.76h10.885v-7.253H17.193v7.253H28.08v4.757c-8.848.406-15.5 2.158-15.5 4.257 0 2.1 6.655 3.852 15.5 4.26V51.5h7.872v-15.25c8.832-.407 15.471-2.158 15.471-4.255 0-2.098-6.639-3.849-15.471-4.256m0 7.22v-.004c-.222.014-1.363.083-3.904.083-2.031 0-3.46-.058-3.964-.084v.006c-7.817-.346-13.652-1.707-13.652-3.336 0-1.629 5.835-2.988 13.652-3.335v5.315c.512.035 1.976.122 3.997.122 2.428 0 3.648-.101 3.872-.122v-5.315c7.802.348 13.623 1.71 13.623 3.333 0 1.623-5.824 2.986-13.623 3.334" fill="#fff"/></g><defs><clipPath id="clip0_495_11507"><path fill="#fff" d="M0 0h64v64H0z"/></clipPath></defs></svg>