<?xml version="1.0" encoding="UTF-8" standalone="no"?>
<svg
   width="60"
   height="60"
   fill="none"
   version="1.1"
   id="svg15"
   sodipodi:docname="usdt-tron.svg"
   inkscape:version="1.1.2 (0a00cf5339, 2022-02-04)"
   xmlns:inkscape="http://www.inkscape.org/namespaces/inkscape"
   xmlns:sodipodi="http://sodipodi.sourceforge.net/DTD/sodipodi-0.dtd"
   xmlns="http://www.w3.org/2000/svg"
   xmlns:svg="http://www.w3.org/2000/svg">
  <sodipodi:namedview
     id="namedview17"
     pagecolor="#ffffff"
     bordercolor="#000000"
     borderopacity="0.25"
     inkscape:pageshadow="2"
     inkscape:pageopacity="0.0"
     inkscape:pagecheckerboard="0"
     showgrid="false"
     inkscape:showpageshadow="false"
     showborder="false"
     fit-margin-top="0"
     fit-margin-left="0"
     fit-margin-right="0"
     fit-margin-bottom="0"
     inkscape:zoom="8.5595238"
     inkscape:cx="50.119611"
     inkscape:cy="24.59249"
     inkscape:window-width="1920"
     inkscape:window-height="1066"
     inkscape:window-x="0"
     inkscape:window-y="0"
     inkscape:window-maximized="1"
     inkscape:current-layer="svg15" />
  <g
     clip-path="url(#clip0_842_16633)"
     id="g8"
     transform="matrix(3,0,0,3.0011927,0,-1.5126011)"
     style="display:none">
    <path
       d="M 9.998,20.496 A 9.97,9.97 0 0 1 0,10.51 9.98,9.98 0 0 1 10.091,0.503 9.976,9.976 0 0 1 20,10.583 9.97,9.97 0 0 1 9.998,20.496 Z m 0.672,-6.192 c 0.114,-0.029 0.218,-0.054 0.318,-0.082 1.047,-0.29 1.855,-1.122 1.755,-2.38 -0.058,-0.722 -0.383,-1.251 -1.055,-1.548 -0.446,-0.2 -0.918,-0.275 -1.393,-0.36 A 8.011,8.011 0 0 1 9.137,9.662 C 8.751,9.533 8.615,9.212 8.626,8.812 8.64,8.426 8.816,8.158 9.166,8.004 c 0.3,-0.132 0.614,-0.129 0.929,-0.11 0.557,0.028 0.95,0.281 1.132,0.821 0.061,0.179 0.183,0.254 0.365,0.254 h 0.536 c 0.293,-0.004 0.41,-0.15 0.347,-0.436 A 2.063,2.063 0 0 0 10.785,6.946 C 10.655,6.925 10.616,6.882 10.62,6.756 10.627,6.5 10.624,6.246 10.624,5.989 c 0,-0.243 -0.14,-0.39 -0.383,-0.4 -0.168,-0.008 -0.332,-0.004 -0.5,0 -0.268,0 -0.407,0.132 -0.418,0.4 -0.007,0.171 0,0.346 0,0.518 0,0.353 0,0.353 -0.336,0.436 -0.976,0.246 -1.612,0.907 -1.69,1.815 -0.075,0.908 0.24,1.597 1.118,1.94 0.315,0.122 0.647,0.197 0.976,0.279 0.482,0.118 0.986,0.179 1.45,0.343 0.562,0.197 0.744,0.825 0.444,1.347 -0.226,0.39 -0.586,0.565 -1.015,0.608 C 9.477,13.357 8.601,13.153 8.447,12.188 8.422,12.038 8.301,11.96 8.147,11.96 7.957,11.956 7.765,11.956 7.575,11.956 c -0.35,0 -0.457,0.136 -0.385,0.482 0.214,0.997 0.868,1.548 1.826,1.787 0.117,0.029 0.239,0.054 0.364,0.082 v 0.947 c 0,0.229 0.132,0.361 0.365,0.368 0.16,0.004 0.321,0.004 0.482,0.004 0.322,0 0.447,-0.125 0.447,-0.458 0,-0.285 -0.004,-0.571 -0.004,-0.864 z m 1.215,2.873 c 0,0.132 -0.01,0.264 0.004,0.393 0.021,0.207 0.193,0.303 0.385,0.232 0.033,-0.01 0.068,-0.025 0.1,-0.036 1.38,-0.457 2.548,-1.232 3.452,-2.369 1.476,-1.854 2.026,-3.963 1.523,-6.282 -0.611,-2.805 -2.33,-4.674 -5.024,-5.646 -0.276,-0.1 -0.436,0.022 -0.447,0.318 -0.007,0.19 -0.01,0.383 -0.004,0.572 0.01,0.229 0.125,0.39 0.343,0.472 2.641,1.004 4.295,3.662 3.96,6.457 -0.29,2.394 -1.559,4.102 -3.77,5.092 -0.526,0.236 -0.53,0.229 -0.522,0.797 z M 2.469,10.595 c 0.022,0.314 0.025,0.632 0.068,0.943 0.3,2.13 1.304,3.852 3.037,5.135 a 7.533,7.533 0 0 0 2.123,1.079 C 7.907,17.82 8.019,17.781 8.087,17.57 8.129,17.437 8.122,17.291 8.126,17.148 8.129,16.598 8.104,16.562 7.608,16.355 7.554,16.333 7.5,16.305 7.443,16.28 A 6.208,6.208 0 0 1 4.645,7.45 C 5.378,6.189 6.446,5.313 7.801,4.788 8.044,4.695 8.126,4.578 8.129,4.316 c 0.004,-0.132 0,-0.26 0,-0.393 0,-0.479 -0.118,-0.568 -0.564,-0.418 a 7.5,7.5 0 0 0 -5.096,7.09 z"
       fill="#0274d0"
       id="path2" />
    <path
       d="m 10.67,14.304 v 0.861 c 0,0.329 -0.126,0.457 -0.447,0.457 -0.161,0 -0.322,0.004 -0.483,-0.003 -0.228,-0.007 -0.36,-0.14 -0.364,-0.368 -0.004,-0.311 0,-0.618 0,-0.947 L 9.011,14.222 C 8.054,13.982 7.403,13.432 7.185,12.435 7.11,12.088 7.218,11.953 7.571,11.953 c 0.19,0 0.383,0 0.572,0.003 0.157,0.004 0.279,0.079 0.3,0.229 0.154,0.965 1.033,1.168 1.823,1.086 0.428,-0.043 0.79,-0.218 1.014,-0.607 0.3,-0.522 0.118,-1.147 -0.443,-1.348 C 10.369,11.152 9.869,11.091 9.387,10.973 9.057,10.895 8.726,10.82 8.411,10.695 7.532,10.348 7.218,9.658 7.293,8.755 7.368,7.843 8.003,7.182 8.983,6.939 9.319,6.853 9.319,6.853 9.319,6.503 c 0,-0.171 -0.004,-0.347 0,-0.518 0.01,-0.268 0.15,-0.4 0.418,-0.4 0.168,0 0.332,-0.007 0.5,0 0.243,0.01 0.379,0.157 0.382,0.4 0.004,0.257 0.008,0.511 -0.003,0.768 -0.004,0.125 0.032,0.172 0.164,0.19 a 2.068,2.068 0 0 1 1.69,1.586 c 0.065,0.29 -0.053,0.433 -0.346,0.436 H 11.588 C 11.409,8.965 11.284,8.894 11.223,8.711 11.041,8.171 10.648,7.921 10.091,7.89 9.773,7.872 9.458,7.868 9.161,8 8.811,8.154 8.633,8.422 8.622,8.808 c -0.014,0.4 0.125,0.722 0.51,0.85 a 8.01,8.01 0 0 0 1.159,0.272 c 0.475,0.086 0.95,0.16 1.393,0.36 0.672,0.301 0.997,0.83 1.054,1.548 0.1,1.258 -0.707,2.09 -1.754,2.38 -0.097,0.032 -0.2,0.057 -0.315,0.086 z"
       fill="#fefefe"
       id="path4" />
    <path
       d="m 11.885,17.177 c -0.008,-0.572 -0.004,-0.561 0.525,-0.797 2.212,-0.99 3.48,-2.698 3.77,-5.092 0.336,-2.795 -1.319,-5.45 -3.96,-6.457 A 0.494,0.494 0 0 1 11.877,4.359 7.623,7.623 0 0 1 11.881,3.787 c 0.01,-0.296 0.172,-0.414 0.447,-0.318 2.698,0.972 4.413,2.841 5.024,5.646 0.504,2.32 -0.047,4.428 -1.522,6.282 -0.908,1.136 -2.076,1.912 -3.452,2.37 -0.032,0.01 -0.068,0.024 -0.1,0.035 -0.197,0.071 -0.365,-0.025 -0.386,-0.232 -0.018,-0.129 -0.007,-0.261 -0.007,-0.393 z M 2.47,10.595 A 7.503,7.503 0 0 1 7.569,3.505 C 8.016,3.355 8.134,3.445 8.134,3.923 V 4.316 C 8.13,4.577 8.048,4.691 7.804,4.788 6.45,5.317 5.383,6.192 4.65,7.45 a 6.207,6.207 0 0 0 2.801,8.83 l 0.164,0.075 c 0.5,0.21 0.526,0.243 0.519,0.793 0,0.14 0.003,0.29 -0.04,0.422 -0.068,0.21 -0.182,0.25 -0.39,0.182 -0.76,-0.25 -1.479,-0.6 -2.122,-1.08 C 3.849,15.39 2.845,13.668 2.545,11.538 2.495,11.223 2.491,10.909 2.47,10.595 Z"
       fill="#fefefe"
       id="path6" />
  </g>
  <g
     clip-path="url(#clip0_495_11507)"
     id="g6"
     transform="scale(0.9375)">
    <path
       d="M 32,0 C 49.672,0 64,14.328 64,32 64,49.672 49.672,64 32,64 14.328,64 0,49.676 0,32 0,14.324 14.326,0 32,0 Z"
       fill="#53ae94"
       id="path2-7" />
    <path
       d="m 35.95,27.736 v -4.76 H 46.835 V 15.723 H 17.193 v 7.253 H 28.08 v 4.757 c -8.848,0.406 -15.5,2.158 -15.5,4.257 0,2.1 6.655,3.852 15.5,4.26 V 51.5 h 7.872 V 36.25 c 8.832,-0.407 15.471,-2.158 15.471,-4.255 0,-2.098 -6.639,-3.849 -15.471,-4.256 m 0,7.22 v -0.004 c -0.222,0.014 -1.363,0.083 -3.904,0.083 -2.031,0 -3.46,-0.058 -3.964,-0.084 v 0.006 c -7.817,-0.346 -13.652,-1.707 -13.652,-3.336 0,-1.629 5.835,-2.988 13.652,-3.335 v 5.315 c 0.512,0.035 1.976,0.122 3.997,0.122 2.428,0 3.648,-0.101 3.872,-0.122 v -5.315 c 7.802,0.348 13.623,1.71 13.623,3.333 0,1.623 -5.824,2.986 -13.623,3.334"
       fill="#ffffff"
       id="path4-5" />
  </g>
  <defs
     id="defs13">
    <clipPath
       id="clip0_842_16633">
      <path
         fill="#ffffff"
         transform="translate(0,0.504)"
         d="M 0,0 H 20 V 19.993 H 0 Z"
         id="path10" />
    </clipPath>
    <clipPath
       id="clip0_495_11507">
      <path
         fill="#ffffff"
         d="M 0,0 H 64 V 64 H 0 Z"
         id="path8" />
    </clipPath>
  </defs>
  <path
     d="m 49.855377,59.790346 c 5.524904,0 10.000001,-4.291188 10.000001,-9.582376 0,-5.291189 -4.475097,-9.582377 -10.000001,-9.582377 -5.524905,0 -10.000001,4.291188 -10.000001,9.582377 0,5.291188 4.478927,9.582376 10.000001,9.582376 z"
     style="fill:#ff060a;stroke-width:0.0383142"
     id="path2-3" />
  <path
     d="M 55.479898,48.487663 C 54.928174,47.997242 54.16189,47.250115 53.541201,46.721379 l -0.03831,-0.02299 c -0.0613,-0.04598 -0.130269,-0.08429 -0.203066,-0.111111 -1.501916,-0.2682 -8.490422,-1.521073 -8.624522,-1.505748 -0.03831,0.0038 -0.07663,0.01916 -0.107279,0.03831 l -0.03448,0.02682 c -0.04215,0.04215 -0.07663,0.09195 -0.09579,0.149426 l -0.0077,0.02299 v 0.145593 c 0.78544,2.099617 3.89272,8.973181 4.505747,10.59004 0.03831,0.111111 0.10728,0.318007 0.237548,0.329502 h 0.03065 c 0.06896,0 0.367816,-0.379311 0.367816,-0.379311 0,0 5.337165,-6.199234 5.877395,-6.858238 0.06897,-0.08046 0.130268,-0.168582 0.183908,-0.260536 0.01533,-0.0728 0.0077,-0.145594 -0.01916,-0.21456 -0.02682,-0.06897 -0.07663,-0.1341 -0.1341,-0.183908 z m -4.544062,0.724138 2.275863,-1.808429 1.337165,1.180076 z m -0.885057,-0.118774 -3.919541,-3.08046 6.344828,1.122605 z m 0.35249,0.804598 4.011495,-0.62069 -4.586207,5.298851 z m -4.804598,-3.574713 4.126437,3.352491 -0.597701,4.904215 z"
     style="fill:#ffffff;stroke-width:0.0383142"
     id="path4-6" />
</svg>
